<svg width="87" height="92" viewBox="0 0 87 92" fill="none" xmlns="http://www.w3.org/2000/svg">
<path d="M1.74401 0.583496H83.1514V62.4057H1.74401V0.583496Z" fill="white"/>
<path d="M1.74399 0.146908C0.474026 0.044308 1.74399 61.9748 1.30737 62.4069C1.21161 63.6791 82.717 62.4069 83.1594 62.8435C84.4293 62.9449 83.1594 1.01445 83.596 0.582388C83.6838 -0.688712 2.17947 0.583528 1.74399 0.146908ZM2.1806 1.02015H82.7159V61.9691H2.17947L2.1806 1.02015Z" fill="#D5F4FF"/>
<path d="M1.74401 19.1655C1.20137 19.1563 1.16033 20.0467 1.74401 20.0376C2.20001 19.6044 83.6678 20.8698 83.588 19.6021C83.6861 18.3287 2.17835 19.6009 1.74401 19.1655Z" fill="#D5F4FF"/>
<path d="M1.74401 42.8377C1.20137 42.8297 1.16033 43.72 1.74401 43.7109C2.20001 43.2777 83.6678 44.5431 83.588 43.2754C83.6861 42.002 2.17835 43.28 1.74401 42.8377Z" fill="#D5F4FF"/>
<path d="M3.55319 2.34595H8.15081V19.1644H3.55319V2.34595Z" fill="#D5F4FF"/>
<path d="M3.55322 3.59656H8.15084V4.86196H3.55322V3.59656Z" fill="#B0EBFF"/>
<path d="M3.55322 7.86353H8.15084V16.5492H3.55322V7.86353Z" fill="#B0EBFF"/>
<path d="M8.98986 2.34595H13.5875V19.1644H8.98986V2.34595Z" fill="#D5F4FF"/>
<path d="M8.98986 3.59656H13.5875V4.86196H8.98986V3.59656Z" fill="#B0EBFF"/>
<path d="M8.98986 7.86353H13.5875V16.5492H8.98986V7.86353Z" fill="#B0EBFF"/>
<path d="M14.4276 2.34595H19.0253V19.1644H14.4276V2.34595Z" fill="#D5F4FF"/>
<path d="M14.4276 3.59656H19.0252V4.86196H14.4276V3.59656Z" fill="#B0EBFF"/>
<path d="M14.4276 7.86353H19.0252V16.5492H14.4276V7.86353Z" fill="#B0EBFF"/>
<path d="M20.0752 2.34595H24.6728V19.1644H20.0752V2.34595Z" fill="#D5F4FF"/>
<path d="M20.0752 3.59656H24.6728V4.86196H20.0752V3.59656Z" fill="#B0EBFF"/>
<path d="M20.0752 7.86353H24.6728V16.5492H20.0752V7.86353Z" fill="#B0EBFF"/>
<path d="M67.5459 2.16809L71.7047 4.12775L64.5375 19.3399L60.3788 17.3814L67.5459 2.16809Z" fill="#D5F4FF"/>
<path d="M67.0124 3.29895L71.17 5.25861L70.6285 6.40659L66.4698 4.44693L67.0124 3.29895Z" fill="#B0EBFF"/>
<path d="M65.1941 7.16016L69.3528 9.11868L65.6524 16.9767L61.4925 15.017L65.1941 7.16016Z" fill="#B0EBFF"/>
<path d="M71.74 2.34595H76.3376V19.1644H71.74V2.34595Z" fill="#D5F4FF"/>
<path d="M71.74 3.59656H76.3376V4.86196H71.74V3.59656Z" fill="#B0EBFF"/>
<path d="M71.74 7.86353H76.3376V16.5492H71.74V7.86353Z" fill="#B0EBFF"/>
<path d="M77.1732 2.34595H81.772V19.1644H77.1732V2.34595Z" fill="#D5F4FF"/>
<path d="M77.1732 3.59656H81.772V4.86196H77.1732V3.59656Z" fill="#B0EBFF"/>
<path d="M77.1732 7.86353H81.772V16.5492H77.1732V7.86353Z" fill="#B0EBFF"/>
<path d="M3.55319 26.0192H8.15081V42.8376H3.55319V26.0192Z" fill="#D5F4FF"/>
<path d="M3.55322 27.2697H8.15084V28.5385H3.55322V27.2697Z" fill="#B0EBFF"/>
<path d="M3.55322 31.5378H8.15084V40.2235H3.55322V31.5378Z" fill="#B0EBFF"/>
<path d="M8.98986 26.0192H13.5875V42.8376H8.98986V26.0192Z" fill="#D5F4FF"/>
<path d="M8.98986 27.2697H13.5875V28.5385H8.98986V27.2697Z" fill="#B0EBFF"/>
<path d="M8.98986 31.5378H13.5875V40.2235H8.98986V31.5378Z" fill="#B0EBFF"/>
<path d="M14.4276 26.0192H19.0253V42.8376H14.4276V26.0192Z" fill="#D5F4FF"/>
<path d="M14.4276 27.2697H19.0252V28.5385H14.4276V27.2697Z" fill="#B0EBFF"/>
<path d="M14.4276 31.5378H19.0252V40.2235H14.4276V31.5378Z" fill="#B0EBFF"/>
<path d="M19.87 26.0192H24.4676V42.8376H19.87V26.0192Z" fill="#D5F4FF"/>
<path d="M19.87 27.2697H24.4676V28.5385H19.87V27.2697Z" fill="#B0EBFF"/>
<path d="M19.87 31.5378H24.4676V40.2235H19.87V31.5378Z" fill="#B0EBFF"/>
<path d="M60.861 26.0192H65.4586V42.8376H60.861V26.0192Z" fill="#D5F4FF"/>
<path d="M60.861 27.2697H65.4586V28.5385H60.861V27.2697Z" fill="#B0EBFF"/>
<path d="M60.861 31.5378H65.4586V40.2235H60.861V31.5378Z" fill="#B0EBFF"/>
<path d="M66.2976 26.0192H70.8953V42.8376H66.2976V26.0192Z" fill="#D5F4FF"/>
<path d="M66.2977 27.2697H70.8953V28.5385H66.2977V27.2697Z" fill="#B0EBFF"/>
<path d="M66.2977 31.5378H70.8953V40.2235H66.2977V31.5378Z" fill="#B0EBFF"/>
<path d="M71.74 26.0192H76.3376V42.8376H71.74V26.0192Z" fill="#D5F4FF"/>
<path d="M71.74 27.2697H76.3376V28.5385H71.74V27.2697Z" fill="#B0EBFF"/>
<path d="M71.74 31.5378H76.3376V40.2235H71.74V31.5378Z" fill="#B0EBFF"/>
<path d="M77.1732 26.0192H81.772V42.8376H77.1732V26.0192Z" fill="#D5F4FF"/>
<path d="M77.1732 27.2697H81.772V28.5385H77.1732V27.2697Z" fill="#B0EBFF"/>
<path d="M77.1732 31.5378H81.772V40.2235H77.1732V31.5378Z" fill="#B0EBFF"/>
<path d="M3.55319 45.08H8.15081V61.8984H3.55319V45.08Z" fill="#D5F4FF"/>
<path d="M3.55322 46.3306H8.15084V47.5994H3.55322V46.3306Z" fill="#B0EBFF"/>
<path d="M3.55322 50.5975H8.15084V59.2832H3.55322V50.5975Z" fill="#B0EBFF"/>
<path d="M8.98986 45.08H13.5875V61.8984H8.98986V45.08Z" fill="#D5F4FF"/>
<path d="M8.98986 46.3306H13.5875V47.5994H8.98986V46.3306Z" fill="#B0EBFF"/>
<path d="M8.98986 50.5975H13.5875V59.2832H8.98986V50.5975Z" fill="#B0EBFF"/>
<path d="M14.4276 45.08H19.0253V61.8984H14.4276V45.08Z" fill="#D5F4FF"/>
<path d="M14.4276 46.3306H19.0252V47.5994H14.4276V46.3306Z" fill="#B0EBFF"/>
<path d="M14.4276 50.5975H19.0252V59.2832H14.4276V50.5975Z" fill="#B0EBFF"/>
<path d="M19.87 45.08H24.4676V61.8984H19.87V45.08Z" fill="#D5F4FF"/>
<path d="M19.87 46.3306H24.4676V47.5994H19.87V46.3306Z" fill="#B0EBFF"/>
<path d="M19.87 50.5975H24.4676V59.2832H19.87V50.5975Z" fill="#B0EBFF"/>
<path d="M60.861 45.08H65.4586V61.8984H60.861V45.08Z" fill="#D5F4FF"/>
<path d="M60.861 46.3306H65.4586V47.5994H60.861V46.3306Z" fill="#B0EBFF"/>
<path d="M60.861 50.5975H65.4586V59.2832H60.861V50.5975Z" fill="#B0EBFF"/>
<path d="M66.2977 45.08H70.8953V61.8984H66.2977V45.08Z" fill="#D5F4FF"/>
<path d="M66.2976 46.3306H70.8953V47.5994H66.2976V46.3306Z" fill="#B0EBFF"/>
<path d="M66.2976 50.5977H70.8953V59.2833H66.2976V50.5977Z" fill="#B0EBFF"/>
<path d="M71.74 45.08H76.3376V61.8984H71.74V45.08Z" fill="#D5F4FF"/>
<path d="M71.74 46.3306H76.3376V47.5994H71.74V46.3306Z" fill="#B0EBFF"/>
<path d="M71.74 50.5977H76.3376V59.2833H71.74V50.5977Z" fill="#B0EBFF"/>
<path d="M77.1732 45.08H81.772V61.8984H77.1732V45.08Z" fill="#D5F4FF"/>
<path d="M77.1732 46.3306H81.772V47.5994H77.1732V46.3306Z" fill="#B0EBFF"/>
<path d="M77.1732 50.5977H81.772V59.2833H77.1732V50.5977Z" fill="#B0EBFF"/>
<path d="M55.4232 26.0192H60.0208V42.8376H55.4232V26.0192Z" fill="#D5F4FF"/>
<path d="M55.4232 27.2697H60.0208V28.5385H55.4232V27.2697Z" fill="#B0EBFF"/>
<path d="M55.4232 31.5378H60.0208V40.2235H55.4232V31.5378Z" fill="#B0EBFF"/>
<path d="M55.4232 45.08H60.0208V61.8984H55.4232V45.08Z" fill="#D5F4FF"/>
<path d="M55.4232 46.3306H60.0208V47.5994H55.4232V46.3306Z" fill="#B0EBFF"/>
<path d="M55.4232 50.5975H60.0208V59.2832H55.4232V50.5975Z" fill="#B0EBFF"/>
<path d="M25.3716 26.0192H29.9693V42.8376H25.3716V26.0192Z" fill="#D5F4FF"/>
<path d="M25.3716 27.2697H29.9692V28.5385H25.3716V27.2697Z" fill="#B0EBFF"/>
<path d="M25.3716 31.5378H29.9692V40.2235H25.3716V31.5378Z" fill="#B0EBFF"/>
<path d="M25.3716 45.08H29.9693V61.8984H25.3716V45.08Z" fill="#D5F4FF"/>
<path d="M25.3716 46.3306H29.9692V47.5994H25.3716V46.3306Z" fill="#B0EBFF"/>
<path d="M25.3716 50.5975H29.9692V59.2832H25.3716V50.5975Z" fill="#B0EBFF"/>
<path d="M13.8977 67.472C13.5641 67.4745 13.2351 67.5501 12.9338 67.6936C12.6326 67.8371 12.3666 68.045 12.1545 68.3025C11.9424 68.5601 11.7894 68.8611 11.7063 69.1842C11.6232 69.5073 11.612 69.8448 11.6736 70.1727H16.1299C16.1915 69.8441 16.1802 69.506 16.0967 69.1823C16.0131 68.8586 15.8594 68.5572 15.6464 68.2995C15.4334 68.0418 15.1664 67.8341 14.8642 67.6911C14.562 67.5481 14.2321 67.4733 13.8977 67.472Z" fill="#D7E9F5"/>
<path d="M13.8647 68.2895C13.9697 68.2885 14.0739 68.3086 14.1711 68.3483C14.2683 68.3881 14.3567 68.4469 14.431 68.5212C14.5053 68.5954 14.564 68.6838 14.6038 68.781C14.6436 68.8782 14.6636 68.9824 14.6627 69.0875V91.0781C14.6746 91.1894 14.663 91.302 14.6286 91.4086C14.5942 91.5151 14.5377 91.6132 14.4628 91.6966C14.388 91.7799 14.2965 91.8465 14.1942 91.8921C14.0919 91.9377 13.9812 91.9612 13.8692 91.9612C13.7572 91.9612 13.6465 91.9377 13.5442 91.8921C13.442 91.8465 13.3504 91.7799 13.2756 91.6966C13.2008 91.6132 13.1443 91.5151 13.1099 91.4086C13.0754 91.302 13.0638 91.1894 13.0758 91.0781V69.0829C13.0755 68.979 13.0956 68.8761 13.1351 68.78C13.1746 68.6839 13.2326 68.5965 13.3059 68.5228C13.3791 68.4491 13.4662 68.3906 13.5621 68.3505C13.6579 68.3105 13.7608 68.2898 13.8647 68.2895Z" fill="#D7E9F5"/>
<path d="M3.82241 70.7507C3.46445 70.7655 3.29573 71.2945 3.52259 71.5487C3.20453 71.6205 3.06659 72.0993 3.28433 72.3387C2.96513 72.4094 2.82833 72.8893 3.04493 73.1276C2.72573 73.1994 2.58893 73.6782 2.80553 73.9165C2.48633 73.9883 2.34953 74.4671 2.56613 74.7065C2.24693 74.7783 2.11013 75.2571 2.32673 75.4954C2.24493 75.5189 2.17122 75.5646 2.1137 75.6274C2.05618 75.6901 2.01707 75.7675 2.00069 75.8511C1.97909 75.9249 1.97569 76.0029 1.99078 76.0783C2.00587 76.1537 2.039 76.2244 2.08733 76.2843C1.76927 76.3561 1.63133 76.8349 1.84793 77.0743C1.52987 77.1461 1.39193 77.6249 1.60853 77.8632C1.22549 77.9441 1.11833 78.6292 1.52645 78.7501C1.92545 78.8333 2.15459 78.2325 1.90493 77.9623C2.22413 77.8916 2.36093 77.4117 2.14433 77.1735C2.46239 77.1016 2.60033 76.6228 2.38373 76.3834C2.70179 76.3128 2.83973 75.8328 2.62313 75.5946C2.94119 75.5227 3.07913 75.0439 2.86253 74.8057C3.18059 74.7338 3.31853 74.2539 3.10193 74.0157C3.41999 73.945 3.55793 73.465 3.34019 73.2268C3.65939 73.155 3.79619 72.6762 3.57959 72.4379C3.89879 72.3661 4.03559 71.8861 3.81899 71.6479C4.23737 71.5647 4.30691 70.7689 3.82241 70.7507ZM5.34317 70.7507C4.85867 70.7701 4.92935 71.5647 5.34317 71.6456C5.12885 71.8839 5.26337 72.3638 5.58257 72.4356C5.36825 72.6739 5.50277 73.1527 5.82197 73.2245C5.60765 73.4627 5.74217 73.9427 6.06137 74.0134C5.84705 74.2516 5.98157 74.7316 6.30077 74.8034C6.08645 75.0417 6.22097 75.5205 6.53903 75.5923C6.32585 75.8305 6.46037 76.3105 6.77843 76.3812C6.56525 76.6206 6.69977 77.0993 7.01783 77.1712C6.80465 77.4094 6.93917 77.8882 7.25723 77.9601C7.00757 78.2302 7.23671 78.831 7.63571 78.7478C8.04383 78.6258 7.93667 77.9418 7.55363 77.8609C7.76681 77.6226 7.63229 77.1438 7.31423 77.072C7.52741 76.8326 7.39403 76.3538 7.07483 76.282C7.12317 76.2221 7.1563 76.1515 7.17139 76.076C7.18647 76.0006 7.18308 75.9226 7.16147 75.8488C7.14509 75.7652 7.10599 75.6878 7.04847 75.6251C6.99095 75.5623 6.91723 75.5167 6.83543 75.4931C6.8837 75.433 6.91677 75.3621 6.93185 75.2865C6.94693 75.2109 6.94358 75.1328 6.92207 75.0588C6.9055 74.9754 6.86631 74.8983 6.8088 74.8357C6.7513 74.7732 6.67768 74.7277 6.59603 74.7042C6.80921 74.4648 6.67469 73.986 6.35663 73.9142C6.56981 73.6759 6.43643 73.1971 6.11723 73.1253C6.33041 72.8871 6.19703 72.4071 5.87783 72.3364C6.09215 72.097 5.95763 71.6182 5.63843 71.5464C5.86643 71.2945 5.69657 70.7655 5.33861 70.7484L5.34317 70.7507ZM3.82583 70.9251C4.10969 70.9548 3.98429 71.5236 3.72209 71.4769C3.49409 71.3948 3.59669 70.9377 3.82583 70.9251ZM5.33975 70.9251C5.56775 70.9388 5.67149 71.3959 5.44349 71.4769C5.18129 71.5225 5.06159 70.9536 5.33975 70.9251ZM3.58643 71.714C4.10171 71.8952 3.29915 72.7115 3.36755 71.942C3.37674 71.8863 3.40257 71.8348 3.44164 71.7941C3.48071 71.7534 3.53119 71.7254 3.58643 71.714ZM5.57915 71.714C5.63439 71.7254 5.68487 71.7534 5.72395 71.7941C5.76302 71.8348 5.78885 71.8863 5.79803 71.942C5.86643 72.7103 5.06159 71.893 5.57915 71.7128V71.714ZM3.35159 72.5029C3.86687 72.683 3.06431 73.4992 3.13271 72.7309C3.1419 72.6752 3.16773 72.6236 3.2068 72.5829C3.24587 72.5422 3.29635 72.5143 3.35159 72.5029ZM5.82311 72.5029C5.87842 72.5142 5.92898 72.542 5.96808 72.5828C6.00718 72.6235 6.03296 72.6751 6.04199 72.7309C6.11039 73.4958 5.30783 72.6784 5.82311 72.5029ZM3.11219 73.2918C3.62747 73.4719 2.82491 74.2881 2.89331 73.5198C2.9025 73.4641 2.92833 73.4125 2.9674 73.3718C3.00647 73.3311 3.05695 73.3032 3.11219 73.2918ZM6.06251 73.2918C6.11776 73.3032 6.16824 73.3311 6.20731 73.3718C6.24638 73.4125 6.2722 73.4641 6.28139 73.5198C6.34979 74.2847 5.54723 73.4685 6.06251 73.2918ZM2.87051 74.0806C3.38579 74.2619 2.58323 75.0781 2.65163 74.3086C2.66067 74.2533 2.68616 74.2019 2.72479 74.1612C2.76343 74.1206 2.81341 74.0925 2.86823 74.0806H2.87051ZM6.29963 74.0806C6.35488 74.0921 6.40535 74.12 6.44442 74.1607C6.48349 74.2014 6.50933 74.253 6.51851 74.3086C6.58463 75.0781 5.78207 74.2608 6.29735 74.0806H6.29963ZM2.63225 74.8706C3.14639 75.0508 2.34383 75.867 2.41223 75.0986C2.42142 75.043 2.44725 74.9914 2.48632 74.9507C2.52539 74.91 2.57587 74.8821 2.63111 74.8706H2.63225ZM6.53789 74.8706C6.59341 74.8817 6.64422 74.9095 6.68354 74.9503C6.72285 74.991 6.7488 75.0428 6.75791 75.0986C6.82517 75.8636 6.02375 75.0462 6.53789 74.8706ZM2.39285 75.6595C2.90699 75.8397 2.10443 76.6559 2.17283 75.8875C2.18202 75.8319 2.20785 75.7803 2.24692 75.7396C2.28599 75.6989 2.33647 75.671 2.39171 75.6595H2.39285ZM6.77729 75.6595C6.83274 75.6708 6.88347 75.6986 6.92276 75.7393C6.96205 75.78 6.98805 75.8317 6.99731 75.8875C7.06457 76.6536 6.26315 75.8362 6.77729 75.6595ZM2.15345 76.4484C2.66759 76.6297 1.86503 77.4459 1.93343 76.6764C1.9427 76.6206 1.96869 76.5689 2.00798 76.5282C2.04727 76.4875 2.098 76.4597 2.15345 76.4484ZM7.01669 76.4484C7.07214 76.4597 7.12287 76.4875 7.16216 76.5282C7.20145 76.5689 7.22745 76.6206 7.23671 76.6764C7.30397 77.4425 6.50255 76.6251 7.01669 76.4484ZM1.91405 77.2384C2.42819 77.4186 1.62563 78.2348 1.69403 77.4664C1.70329 77.411 1.729 77.3596 1.76783 77.3189C1.80666 77.2783 1.85681 77.2502 1.91177 77.2384H1.91405ZM7.25609 77.2384C7.31148 77.2498 7.36212 77.2777 7.40139 77.3184C7.44065 77.3591 7.4667 77.4107 7.47611 77.4664C7.54109 78.2348 6.73967 77.4231 7.25381 77.2384H7.25609ZM1.67009 78.0273C2.18423 78.2074 1.38281 79.0237 1.45007 78.2553C1.45949 78.1996 1.48553 78.148 1.5248 78.1073C1.56406 78.0666 1.61471 78.0387 1.67009 78.0273ZM7.49093 78.0273C7.54632 78.0387 7.59696 78.0666 7.63623 78.1073C7.67549 78.148 7.70154 78.1996 7.71095 78.2553C7.77821 79.0214 6.97679 78.204 7.49093 78.0273Z" fill="#322F4A"/>
<path d="M8.84069 78.4822H-3.8147e-06C0.0239362 84.0796 8.82359 84.0762 8.84069 78.4822Z" fill="#F6BA34"/>
<path d="M6.41249 78.4822C6.13661 80.6265 5.04449 81.958 4.04243 82.7435C6.59261 82.9715 8.85664 80.9742 8.84068 78.4822H6.41249Z" fill="#EA792F"/>
<path d="M23.9069 70.7507C24.2649 70.7655 24.4348 71.2945 24.2068 71.5487C24.5248 71.6205 24.6628 72.0993 24.4462 72.3387C24.7642 72.4094 24.9022 72.8893 24.6844 73.1276C25.0036 73.1994 25.1404 73.6782 24.9238 73.9165C25.243 73.9883 25.3798 74.4671 25.1632 74.7065C25.4824 74.7783 25.6192 75.2571 25.4026 75.4954C25.4844 75.5189 25.5581 75.5646 25.6157 75.6274C25.6732 75.6901 25.7123 75.7675 25.7287 75.8511C25.7503 75.9249 25.7537 76.0029 25.7386 76.0783C25.7235 76.1537 25.6904 76.2244 25.642 76.2843C25.9612 76.3561 26.098 76.8349 25.8814 77.0743C26.1995 77.1461 26.3374 77.6249 26.1208 77.8632C26.5039 77.9441 26.611 78.6292 26.2029 78.7501C25.8039 78.8333 25.5748 78.2325 25.8244 77.9623C25.5064 77.8916 25.3684 77.4117 25.585 77.1735C25.267 77.1016 25.129 76.6228 25.3456 76.3834C25.0276 76.3128 24.8896 75.8328 25.1062 75.5946C24.7882 75.5227 24.6502 75.0439 24.8668 74.8057C24.5488 74.7338 24.4108 74.2539 24.6286 74.0157C24.3094 73.945 24.1726 73.465 24.3892 73.2268C24.07 73.155 23.9332 72.6762 24.1498 72.4379C23.8306 72.3661 23.6938 71.8861 23.9104 71.6479C23.492 71.5647 23.4224 70.7689 23.9069 70.7507ZM22.3862 70.7507C22.8707 70.7701 22.8 71.5647 22.3862 71.6456C22.6005 71.8839 22.466 72.3638 22.1468 72.4356C22.3611 72.6739 22.2266 73.1527 21.9074 73.2245C22.1217 73.4627 21.9872 73.9427 21.668 74.0134C21.8823 74.2516 21.7478 74.7316 21.4286 74.8034C21.6429 75.0417 21.5084 75.5205 21.1903 75.5923C21.4035 75.8305 21.269 76.3105 20.9509 76.3812C21.1641 76.6206 21.0296 77.0993 20.7115 77.1712C20.9258 77.4094 20.7902 77.8882 20.4721 77.9601C20.7218 78.2302 20.4926 78.831 20.0936 78.7478C19.6855 78.6258 19.7927 77.9418 20.1757 77.8609C19.9625 77.6226 20.0971 77.1438 20.4151 77.072C20.2019 76.8326 20.3365 76.3538 20.6545 76.282C20.6062 76.2221 20.5731 76.1515 20.558 76.076C20.5429 76.0006 20.5463 75.9226 20.5679 75.8488C20.5843 75.7652 20.6234 75.6878 20.6809 75.6251C20.7384 75.5623 20.8121 75.5167 20.8939 75.4931C20.8457 75.433 20.8126 75.3621 20.7975 75.2865C20.7824 75.2109 20.7858 75.1328 20.8073 75.0588C20.8239 74.9754 20.863 74.8983 20.9206 74.8357C20.9781 74.7732 21.0517 74.7277 21.1333 74.7042C20.9201 74.4648 21.0547 73.986 21.3727 73.9142C21.1595 73.6759 21.2941 73.1971 21.6121 73.1253C21.3989 72.8871 21.5335 72.4071 21.8515 72.3364C21.6383 72.097 21.7717 71.6182 22.0909 71.5464C21.8629 71.2945 22.0328 70.7655 22.3907 70.7484L22.3862 70.7507ZM23.9035 70.9251C23.6208 70.9548 23.7462 71.5236 24.0073 71.4769C24.2353 71.3948 24.1327 70.9377 23.9035 70.9251ZM22.3896 70.9251C22.1616 70.9388 22.0579 71.3959 22.2859 71.4769C22.5481 71.5225 22.6735 70.9536 22.3896 70.9251ZM24.1429 71.714C23.6276 71.8952 24.4302 72.7115 24.3629 71.942C24.3532 71.8864 24.3271 71.8349 24.2879 71.7943C24.2487 71.7536 24.1982 71.7257 24.1429 71.714ZM22.1502 71.714C22.095 71.7254 22.0445 71.7534 22.0054 71.7941C21.9663 71.8348 21.9405 71.8863 21.9313 71.942C21.8629 72.7103 22.6655 71.893 22.1502 71.7128V71.714ZM24.3823 72.504C23.867 72.6841 24.6696 73.5004 24.6012 72.732C24.592 72.6763 24.5662 72.6248 24.5271 72.5841C24.4881 72.5434 24.4376 72.5155 24.3823 72.504ZM21.9108 72.504C21.8555 72.5153 21.8049 72.5432 21.7658 72.5839C21.7267 72.6246 21.701 72.6763 21.6919 72.732C21.6235 73.4969 22.4261 72.6796 21.9108 72.504ZM24.6217 73.2929C24.1064 73.473 24.909 74.2893 24.8406 73.5209C24.8314 73.4652 24.8056 73.4137 24.7665 73.373C24.7274 73.3323 24.677 73.3043 24.6217 73.2929ZM21.6714 73.2929C21.6162 73.3043 21.5657 73.3323 21.5266 73.373C21.4875 73.4137 21.4617 73.4652 21.4525 73.5209C21.3841 74.287 22.1867 73.4696 21.6725 73.2929H21.6714ZM24.8634 74.0818C24.3481 74.263 25.1507 75.0793 25.0823 74.3098C25.0732 74.2536 25.0471 74.2015 25.0076 74.1606C24.968 74.1196 24.9169 74.0917 24.8611 74.0806L24.8634 74.0818ZM21.4354 74.0818C21.38 74.093 21.3292 74.1208 21.29 74.1616C21.2507 74.2023 21.2247 74.254 21.2154 74.3098C21.1459 75.0781 21.9473 74.2608 21.4331 74.0806L21.4354 74.0818ZM25.1028 74.8718C24.5875 75.0519 25.3901 75.8682 25.3217 75.0998C25.3125 75.0441 25.2867 74.9926 25.2476 74.9519C25.2085 74.9112 25.158 74.8832 25.1028 74.8718ZM21.196 74.8718C21.1405 74.8829 21.0897 74.9107 21.0504 74.9514C21.0111 74.9921 20.9851 75.0439 20.976 75.0998C20.9087 75.8647 21.7102 75.0474 21.196 74.8718ZM25.3411 75.6607C24.8269 75.8408 25.6295 76.657 25.5611 75.8887C25.5519 75.833 25.5261 75.7814 25.487 75.7407C25.4479 75.7 25.3974 75.6721 25.3422 75.6607H25.3411ZM20.9566 75.6607C20.9012 75.6719 20.8504 75.6997 20.8112 75.7405C20.7719 75.7812 20.7459 75.8329 20.7366 75.8887C20.6693 76.6547 21.4708 75.8374 20.9566 75.6607ZM25.5816 76.4484C25.0675 76.6297 25.87 77.4459 25.8016 76.6764C25.7924 76.6207 25.7666 76.5692 25.7275 76.5285C25.6885 76.4878 25.638 76.4599 25.5827 76.4484H25.5816ZM20.7184 76.4484C20.663 76.4598 20.6123 76.4877 20.5731 76.5284C20.5338 76.569 20.5078 76.6207 20.4983 76.6764C20.4311 77.4425 21.2325 76.6251 20.7184 76.4484ZM25.821 77.2384C25.3069 77.4186 26.1094 78.2348 26.041 77.4664C26.0315 77.4102 26.005 77.3581 25.9651 77.3174C25.9251 77.2766 25.8737 77.2491 25.8176 77.2384H25.821ZM20.479 77.2384C20.4237 77.2501 20.3732 77.2781 20.334 77.3187C20.2948 77.3594 20.2687 77.4108 20.2589 77.4664C20.1883 78.2348 20.9908 77.4231 20.4755 77.2384H20.479ZM26.065 78.0273C25.5508 78.2074 26.3534 79.0237 26.285 78.2553C26.2757 78.1995 26.2497 78.1478 26.2104 78.1071C26.1711 78.0664 26.1204 78.0386 26.065 78.0273ZM20.2441 78.0273C20.1889 78.039 20.1384 78.067 20.0992 78.1076C20.06 78.1482 20.0338 78.1997 20.0241 78.2553C19.9568 79.0214 20.7583 78.204 20.2441 78.0273Z" fill="#322F4A"/>
<path d="M18.8887 78.4822H27.7294C27.7055 84.0796 18.9115 84.0762 18.8887 78.4822Z" fill="#F6BA34"/>
<path d="M25.2807 78.4822C25.0036 80.6265 23.9058 81.958 22.9106 82.7435C25.4596 82.9715 27.7248 80.9742 27.7077 78.4822H25.2807Z" fill="#EA792F"/>
<path d="M11.7443 69.035C11.6195 69.4018 11.5936 69.795 11.669 70.175H16.1253C16.2008 69.795 16.1748 69.4018 16.05 69.035H11.7443Z" fill="#C3D2D1"/>
<path d="M3.36871 69.6118C2.34271 69.5959 2.33473 71.2158 3.36871 71.1998H24.3607C25.3867 71.2158 25.3946 69.5959 24.3607 69.6118H3.36871Z" fill="#D7E9F5"/>
<path d="M13.0712 86.2467C13.0792 86.3607 13.0553 91.0849 13.0792 91.1829H14.6501C14.6741 91.0849 14.6501 86.355 14.6581 86.2467H13.0712Z" fill="#C3D2D1"/>
<path d="M8.21142 86.8269H19.4153C21.2393 86.8178 20.7457 89.2209 20.8016 90.3769C20.8019 90.559 20.7662 90.7394 20.6967 90.9077C20.6271 91.0761 20.525 91.229 20.3962 91.3578C20.2674 91.4866 20.1145 91.5887 19.9462 91.6582C19.7779 91.7278 19.5975 91.7634 19.4153 91.7631H8.21142C8.02929 91.7634 7.84889 91.7278 7.68057 91.6582C7.51225 91.5887 7.35931 91.4866 7.23052 91.3578C7.10174 91.229 6.99964 91.0761 6.93009 90.9077C6.86053 90.7394 6.82488 90.559 6.82518 90.3769C6.8856 89.2198 6.38172 86.8201 8.21142 86.8269Z" fill="#D7E9F5"/>
<path d="M13.0712 70.2046V71.7083H14.6581V70.2046H13.0712Z" fill="#C3D2D1"/>
<path d="M3.36871 69.6118C2.34271 69.5959 2.33473 71.2158 3.36871 71.1998H24.3607C25.3867 71.2158 25.3946 69.5959 24.3607 69.6118H3.36871Z" fill="#D7E9F5"/>
<path d="M8.52378 87.4688C8.14644 87.4688 8.1453 88.057 8.52378 88.0513H18.8123V90.5593C18.8098 90.5991 18.8155 90.6389 18.829 90.6764C18.8425 90.7139 18.8636 90.7483 18.8908 90.7773C18.9181 90.8064 18.9511 90.8295 18.9877 90.8454C19.0243 90.8612 19.0637 90.8694 19.1036 90.8694C19.1434 90.8694 19.1828 90.8612 19.2194 90.8454C19.256 90.8295 19.289 90.8064 19.3163 90.7773C19.3436 90.7483 19.3646 90.7139 19.3781 90.6764C19.3916 90.6389 19.3973 90.5991 19.3948 90.5593V87.7606C19.3948 87.6834 19.3642 87.6093 19.3097 87.5546C19.2553 87.4999 19.1813 87.4691 19.1041 87.4688H8.52378Z" fill="#C3D2D1"/>
<path d="M84.9437 86.2101H63.4798L61.478 91.9249H82.9419L84.9437 86.2101Z" fill="#C3D2D1"/>
<path d="M63.4798 86.2101H84.9437L86.9456 91.9249H65.4817L63.4798 86.2101Z" fill="#D7E9F5"/>
<path d="M66.0232 87.4425L66.9021 90.4954H68.994L68.8435 89.9721H67.3786L66.6513 87.4425H66.0232ZM69.4067 87.4425L69.2003 90.4954H69.841L69.8684 89.8798H71.0084L71.3869 90.4954H72.031L70.093 87.4425H69.4067ZM71.282 87.4425L73.0228 90.4954H73.5928L73.4047 88.1128L74.6017 90.4954H75.1717L75.1386 87.4425H74.466L74.6689 89.7327L73.5164 87.4425H72.8962L73.0809 89.7293L71.95 87.4425H71.282ZM75.2549 87.4425L76.8212 89.3645L77.1473 90.4954H77.772L77.446 89.3645L77.8598 87.4425H77.1564L76.9626 88.7911L75.9514 87.4425H75.2549ZM78.2405 87.4425L79.1195 90.4954H81.3995L81.249 89.9721H79.596L79.368 89.181H80.8295L80.679 88.6577H79.2175L79.0192 87.9669H80.5981L80.4464 87.4425H78.2405ZM81.0244 87.4425L81.9034 90.4954H82.5315L82.1827 89.2847C83.741 89.1981 83.1152 89.4796 83.7285 90.4954H84.4034L84.3703 90.3814C83.9075 90.012 84.1298 89.149 83.4219 89.0202C84.0956 88.7455 83.643 87.7218 83.0867 87.5211C82.8165 87.3718 81.3413 87.4698 81.0244 87.4425ZM81.803 87.9669C82.2077 88.0159 83.0126 87.7742 83.1175 88.3556C83.3614 88.9906 82.3354 88.6976 82.0322 88.7615L81.803 87.9669ZM69.947 88.163L70.688 89.3565H69.89L69.947 88.163Z" fill="#22263F"/>
<path d="M56.747 74.7646L30.9556 75.8385L30.3856 91.9251H44.7758L44.9651 90.3621L46.0264 89.7078C46.0264 89.7078 46.2214 91.1145 46.3342 91.9251H58.148C57.8961 84.2153 58.3863 79.2802 56.7436 74.7646H56.747Z" fill="#3D395A"/>
<path d="M56.2921 41.0217C59.3143 44.4474 64.8421 58.311 61.527 62.2064C60.7815 62.8242 56.5794 58.6439 56.5794 58.6439L55.4041 43.5958L56.2921 41.0217Z" fill="#3D395A"/>
<path d="M39.0234 78.9336C39.0234 78.9336 48.7499 81.9876 56.5999 78.4958C57.0274 70.2605 50.282 39.6572 50.282 39.6572L44.0041 38.1854L36.9668 42.6497L39.0234 78.9336Z" fill="#E8F1F6"/>
<path d="M42.3089 40.5236C42.2849 40.7311 43.3075 43.3668 44.7622 44.0701C44.7622 44.0701 43.4557 62.8995 43.5332 63.0682C43.6108 63.237 44.8819 69.4625 44.8819 69.4625L50.3322 74.3349L53.6382 67.1528L46.8256 43.8501C46.8256 43.8501 47.7045 43.3816 48.1081 40.2101C46.5235 38.3724 44.0987 38.8957 44.0987 38.8957L42.3089 40.5236Z" fill="#04B6F5"/>
<path d="M48.2164 37.6576C50.3105 50.6661 52.8607 71.9522 56.682 84.189C56.682 84.189 57.6852 84.5207 58.8252 83.5506L56.2921 41.0217C56.2921 41.0217 52.7137 37.6941 48.2164 37.6576Z" fill="#3D395A"/>
<path d="M48.4797 37.6656C49.3336 40.0038 50.3037 43.5674 52.0034 45.4382C51.601 46.3889 50.7791 57.4515 52.0274 55.3265C51.8359 52.5791 52.1767 48.1753 52.4891 45.1281C50.9353 43.4831 49.9013 39.8898 49.1067 37.7078C48.9004 37.6862 48.686 37.6725 48.4797 37.6656Z" fill="#22263F"/>
<path d="M55.6754 47.8196C55.8281 47.6007 56.4403 51.0606 56.7014 53.8274C56.8268 55.0232 56.9111 56.0834 56.9533 56.9783C57.0673 59.8215 56.7664 59.8637 56.3981 57.0319C56.2739 56.1849 56.1268 55.0609 55.9957 53.9049C55.6514 51.1586 55.477 47.6269 55.6754 47.8196Z" fill="#22263F"/>
<path d="M60.5489 51.9943C57.4572 52.4776 57.4321 52.1527 53.2711 54.3313C53.2711 54.3313 54.948 57.4856 54.9959 57.5233C55.0096 57.5335 55.3858 57.5016 55.8988 57.4549C56.9111 58.9654 58.8628 58.1879 59.9036 57.0422C61.1314 56.9122 63.8868 56.5759 63.3362 55.1737C63.9062 55.0027 63.9882 54.0941 62.7662 53.637C63.2222 53.0773 62.1483 52.4799 61.5589 52.5278C61.4928 52.4332 61.0869 51.9988 60.5489 51.9943Z" fill="#FEC3B3"/>
<path d="M46.0948 67.358L40.2808 41.2657L36.1392 37.8457C36.1392 37.8457 32.4912 38.6768 31.0183 39.8145C27.6131 46.5245 29.3722 75.9308 28.711 81.8235C28.711 81.8235 33.8911 85.5011 41.365 84.6051L46.0948 67.358Z" fill="#3D395A"/>
<path d="M36.1381 37.8503C36.1381 37.8503 35.9431 37.8959 35.6593 37.9643C36.4573 40.144 37.5494 44.4954 37.6337 46.4722C39.1898 47.9542 43.1776 57.0742 43.6837 58.5892C43.7018 58.6341 43.7307 58.6739 43.7679 58.7049C43.8051 58.7359 43.8493 58.7572 43.8968 58.7669C43.9442 58.7766 43.9933 58.7744 44.0397 58.7605C44.0861 58.7466 44.1283 58.7215 44.1625 58.6873C43.2243 55.1909 40.2204 48.9004 38.1399 46.186C38.1695 44.085 36.9862 40.1611 36.2692 37.9575L36.1381 37.8503Z" fill="#22263F"/>
<path d="M61.5258 62.2041C58.3338 65.4668 50.135 63.889 45.5522 61.7811C46.3866 57.8721 46.4984 55.9261 46.7275 55.8874C46.9566 55.8486 54.7349 56.4277 56.3502 56.5816C59.6642 56.9373 61.3594 59.6209 61.5258 62.2041Z" fill="#3D395A"/>
<path d="M60.908 59.8375C60.3471 59.4146 59.6369 58.1549 58.628 57.6886C57.6453 57.0149 55.8623 56.9031 55.1806 56.4768C55.9934 56.0641 57.8528 56.4266 58.9825 57.0753C60.0382 57.7034 61.0208 59.0133 60.9023 59.8375H60.908Z" fill="#22263F"/>
<path d="M36.716 34.9729C36.2771 35.7937 35.7128 38.3792 35.8861 38.4727C36.0594 38.5662 39.9502 43.3154 39.9502 43.3154L44.1249 39.5534L46.723 39.3323L48.8525 41.1152C48.8525 41.1152 49.4225 38.1398 48.6119 36.7023C45.5943 35.9841 36.716 34.9729 36.716 34.9729Z" fill="#E8F1F6"/>
<path d="M31.016 39.8191C28.28 41.5565 27.5823 41.6112 27.6496 43.7966C27.7169 45.9819 29.5067 54.1626 30.7801 57.5963C32.0534 61.0299 32.0968 61.7481 33.182 62.6259C34.2673 63.5037 40.274 62.1494 40.73 60.8259C40.909 56.7219 33.8193 42.3921 31.0217 39.8191H31.016Z" fill="#3D395A"/>
<path d="M36.3261 48.2118C36.9839 48.5891 38.3291 51.5793 38.8649 52.9097C39.5751 54.7611 40.6 57.3056 40.4917 58.6804C39.8077 57.6122 39.1112 55.2524 38.3257 53.4786L38.2049 53.1742C37.7055 51.7515 36.3957 49.003 36.3261 48.2118Z" fill="#22263F"/>
<path d="M45.2239 56.544C40.0471 51.9008 36.3319 51.6283 32.9632 55.6833C32.6155 56.4243 32.9176 57.024 33.3131 56.951C33.2276 57.8562 33.5411 58.148 34.1795 58.091C34.2263 59.003 34.5626 59.1067 35.3891 58.8309C35.7208 60.0666 44.81 56.4779 45.2239 56.544Z" fill="#FEC3B3"/>
<path d="M59.8432 63.3818C58.0546 65.4554 47.1698 63.6896 45.4268 61.877C47.7615 62.5473 52.4275 63.5562 55.2479 63.5961C56.9499 63.7443 58.7876 63.7637 59.8432 63.3818Z" fill="#22263F"/>
<path d="M35.4085 59.9412C40.1691 56.2225 48.3384 54.476 52.4902 53.6404C52.4902 53.6404 57.1802 54.2286 56.2807 57.334C51.7413 61.5451 34.224 69.8888 32.4468 61.2305C32.5163 60.7221 35.4085 59.9412 35.4085 59.9412Z" fill="#3D395A"/>
<path d="M35.6023 60.0495C39.0633 57.4161 44.924 55.5226 49.5319 54.4783C50.8019 54.2503 51.7321 53.6894 52.9348 53.8775C54.1637 54.199 55.7198 54.7485 56.1872 55.9786C56.4016 56.5634 56.2864 56.9761 56.3286 56.9829C56.3708 56.9897 56.5817 56.617 56.4164 55.9113C56.0288 54.4852 54.3872 53.8046 53.0443 53.4033C51.8404 53.116 50.6788 53.7122 49.3963 53.9254C44.8363 55.013 38.5252 56.7241 35.6023 60.0461V60.0495Z" fill="#22263F"/>
<path d="M55.6982 57.6282C54.4351 59.8672 41.3342 67.3592 35.1884 64.7954C31.9622 62.9178 30.8849 58.4353 29.8498 55.3163C29.2559 53.3783 28.0144 48.0762 28.166 47.4275C28.4613 48.083 29.6948 53.1913 30.3913 55.1567C31.4378 58.0511 32.5391 62.366 35.4746 64.1479C41.7617 66.4928 53.9585 59.1797 55.6982 57.6282Z" fill="#22263F"/>
<path d="M44.769 44.0667C45.0848 43.9174 46.6386 43.7624 46.821 43.8638C46.9452 44.2776 44.6801 44.5148 44.769 44.0667Z" fill="#0081AF"/>
<path d="M33.7612 72.4105C33.3827 72.4105 33.3827 72.9976 33.7612 72.9931C34.1351 73.0387 42.1915 75.468 40.4313 73.8572C38.4659 73.7512 35.7493 72.8392 33.7612 72.4105Z" fill="#22263F"/>
<path d="M58.164 72.4344C57.6772 72.5313 56.6923 72.6624 56.7538 72.6465C56.3788 72.683 56.4437 73.2723 56.8177 73.2256C56.7721 73.2336 57.6544 73.123 58.1982 73.0204L58.164 72.4344Z" fill="#22263F"/>
<path d="M42.8983 79.1046C43.1901 78.9472 42.31 83.0809 41.7309 84.3599C41.5816 84.6757 41.5029 85.2423 41.1609 85.4202C40.2124 85.6482 39.2662 85.3939 38.3109 85.3062C35.9728 85.0132 30.8257 83.7364 29.7609 82.4721C32.0945 83.3305 37.7683 84.8809 40.8919 84.8137C40.8839 84.8023 40.8531 84.8376 40.7893 84.9117C40.9147 84.6837 41.0309 84.3805 41.1313 84.1342C41.7013 82.8996 42.8675 78.8674 42.8948 79.108L42.8983 79.1046Z" fill="#22263F"/>
<path d="M55.2593 78.3921C55.29 78.3921 55.3037 78.4172 55.3254 78.4445C55.3586 78.5008 55.3876 78.5595 55.412 78.6201C55.4793 78.766 55.5602 78.978 55.6526 79.2448C56.1371 80.655 56.6535 82.6887 57.0126 84.2471C56.9339 84.1502 56.9111 84.1137 56.8986 84.14C57.3238 84.2471 59.7258 83 58.4353 83.9918C57.9919 84.2072 56.9773 85.0303 56.527 84.3965C56.027 82.7318 55.619 81.0409 55.3049 79.3314C55.2593 79.0533 55.2296 78.8276 55.2194 78.668C55.2137 78.6043 55.2137 78.5402 55.2194 78.4764C55.2194 78.4422 55.2194 78.4126 55.2513 78.3989L55.2593 78.3921Z" fill="#22263F"/>
<path d="M48.7818 88.1961C48.9266 88.9086 45.4621 90.7725 44.9571 90.3313C44.9092 90.1831 45.8167 89.7932 46.8575 89.2266C47.8983 88.6601 48.6815 88.0923 48.7818 88.2006V88.1961Z" fill="#22263F"/>
<path d="M36.5473 33.3221V35.6683C38.8467 38.2618 44.1557 40.2157 45.9762 40.9123C47.3511 39.8692 47.3648 37.1685 47.3591 36.9998C47.3591 36.9998 46.9669 35.8849 46.8677 35.7868C44.3289 35.0926 39.1328 33.8819 36.5473 33.3221Z" fill="#FEC3B3"/>
<path d="M37.8332 33.6117C37.1071 33.6482 37.009 33.6516 36.5473 33.8956V35.3C39.2491 38.4829 43.6016 39.8281 47.1949 38.5867C47.4662 37.018 47.4229 36.8972 46.8529 35.7811C44.6208 35.1917 40.0722 34.0825 37.8332 33.6117Z" fill="#F37584"/>
<path d="M29.876 26.3761C25.3628 21.661 24.2387 13.64 28.166 11.5424C30.2317 -2.97891 62.6818 -1.52199 57.0331 15.6795C55.8156 18.9125 35.4085 28.2856 35.4085 28.2856L29.876 26.3761Z" fill="#642435"/>
<path d="M51.6067 9.38669C50.8805 9.36845 50.2763 9.53945 49.8887 9.93389C45.7688 14.4278 41.5838 6.43295 36.9475 11.6439C37.4342 13.3334 36.9338 16.8206 33.8478 18.1248C34.411 20.8517 34.1693 22.2379 33.027 23.4931C25.7914 20.48 24.7244 34.6377 34.46 32.6438C42.5813 43.1318 61.6387 35.7424 56.804 22.9618C57.26 21.4274 58.4969 15.2189 55.672 10.806C54.272 9.93959 52.7798 9.42203 51.6067 9.38669Z" fill="#FEC3B3"/>
<path d="M33.8056 29.9909C32.6884 30.5256 28.5742 30.2953 28.7452 26.9585C31.61 22.3985 34.3311 27.1968 33.8056 29.9909Z" fill="#FAB3AA"/>
<path d="M56.0675 19.8952L51.1234 17.972C52.7661 15.3432 56.5315 17.0463 56.0675 19.8963V19.8952Z" fill="#642435"/>
<path d="M38.0179 19.6375L43.6883 17.8363C42.1937 15.35 37.6634 16.5117 38.0179 19.6375Z" fill="#642435"/>
<path d="M51.536 23.2627C51.4369 24.9511 54.0019 25.1118 54.1159 23.4257C54.2128 21.734 51.65 21.5767 51.536 23.2627Z" fill="#642435"/>
<path d="M39.68 23.6276C39.5809 25.3159 42.1459 25.4778 42.2599 23.7906C42.3739 22.1034 39.794 21.9415 39.68 23.6276Z" fill="#642435"/>
<path d="M33.8569 30.1381C33.9709 30.1381 34.151 29.1235 33.8569 27.5867C33.5309 24.7709 30.2819 23.6982 28.9378 26.3498C28.573 27.1775 28.6893 27.2333 29.208 26.5231C30.5999 24.5612 32.8925 25.3831 33.3211 27.7076C33.6973 29.1121 33.7418 30.1415 33.8535 30.1381H33.8569Z" fill="#F37584"/>
<path d="M33.4511 27.1729C33.3884 26.6222 32.2735 26.4056 31.6362 26.7465C30.991 27.0201 30.218 27.8694 30.3902 28.3881C31.5028 27.5776 31.8061 26.8776 33.4511 27.1729Z" fill="#F37584"/>
<path d="M48.6119 25.4492C49.6756 25.4857 49.7394 25.8459 49.8169 26.099C49.8169 26.7066 47.041 26.84 46.9589 26.3145C46.9418 25.952 47.7148 25.496 48.6119 25.4492Z" fill="#F37584"/>
<path d="M43.8479 29.4734C44.6288 29.6683 45.795 30.2999 46.9339 30.3272C48.3497 30.4846 50.7586 30.073 50.4679 30.3785C50.3892 30.6419 48.8662 31.4855 46.8518 31.3019C45.7061 31.2449 43.6598 30.2999 43.8536 29.4779L43.8479 29.4734Z" fill="#F37584"/>
</svg>
